<?xml version="1.0" encoding="utf-8"?>
<!-- Generator: Adobe Illustrator 13.0.0, SVG Export Plug-In . SVG Version: 6.00 Build 14948)  -->
<!DOCTYPE svg PUBLIC "-//W3C//DTD SVG 1.1//EN" "http://www.w3.org/Graphics/SVG/1.1/DTD/svg11.dtd">
<svg version="1.1" id="Layer_1" xmlns="http://www.w3.org/2000/svg" xmlns:xlink="http://www.w3.org/1999/xlink" x="0px" y="0px"
	 width="481.043px" height="533px" viewBox="0 0 481.043 533" enable-background="new 0 0 481.043 533" xml:space="preserve">
<g>
	<g>
		<path d="M326.043,447c10.646-3.303,19.498,2.07,29,4c8.635,1.752,21.5,6.645,29,5c12.498-2.74,13.539-32.508,15-48
			c5.408-57.305,0.002-129.307,2-184c-16.48,5.775-47.879,4.2-76,6c-36.877,2.36-76.104,6.508-112,12
			c-33.518,5.127-60.574,13.801-84-3c-5.505,96.161-26.397,176.936-75,230c-16.332,9.336-28.043,28.621-49,30
			c-1.922-9.906,11.021-17.633,17-26c31.805-44.508,52.788-95.531,64-164c8.274-50.529,9-106.647,9-169c0-28.266-0.698-58.699-8-81
			c-2.182-6.665-8.331-11.626-8-21c16.258-19.645,37.188,2.708,52,5c9.687,1.499,23.366-1.888,36-3
			c33.595-2.956,71.549-5.687,104-10c23.275-3.093,44.801-7.838,65-11c22.063-3.454,43.914-6.422,64-12
			c13.631-3.785,50.643,24.134,52,35c0.824,6.592-3.686,11.06-6,18c-10.383,31.149-7,79.776-7,123c0,33.888,1,68.736,1,103
			c0,69.908,7.17,139.514-5,199c-3.24,3.092-5.016,7.65-6,13c-9.154,8.076-13.154,25.477-27,26c-14.465,0.547-29-27.758-39-38
			C347.833,470.418,333.245,461.547,326.043,447z M313.043,122c30.012-3.204,66.125-21.21,88,1c-3.768-26.565,5.244-65.911-11-80
			c-47.244,0.754-92.336,3.663-134,10c10.434,5.617,24.775,6.244,27,18c2.693,14.22-10.172,40.775-7,58
			C290.568,125.575,312.883,124.816,313.043,122z M140.044,66c-6.557,22.444-11.59,51.741-8,81c34.664-4.67,70.822-7.845,106-12
			c0.022-27.355,2.677-57.343-11-71c-2.082-4.402,4.924-8.167,0-9C198.571,59.193,167.831,61.12,140.044,66z M399.043,134
			c-35.492,13.841-81.621,17.045-125,23c-0.072,17.927-2.234,33.765-3,51c12.785-2.565,28.152-3.988,44-6
			c26.002-3.3,50.125-13.382,71-1c5.635,3.343,10.963,12.445,15,11C399.774,187.82,403.614,151.686,399.043,134z M135.044,162
			c-0.622-1.063-4.178-6.377-4-2c0.048,22.715,0.276,45.609-1,67c34.884-6.115,73.081-8.919,109-14c0-17.333,0-34.667,0-52
			C205.761,163.028,165.517,172.12,135.044,162z"/>
		<path d="M333.043,388c-39.947,3.725-82.012,10.645-123,10c-2.033,20.213-19.833,20.291-25,1c-6.03-22.516-4.577-65.434-16-87
			c-4.092-7.727-10.567-8.617-10-18c8.873-9.406,18.053,0.123,29,1c4.043,0.324,8.553-1.596,13-2c25.728-2.344,58.234-8.277,80-17
			c11.822-4.738,20.545-14.189,38-10c8.777,2.105,34.07,13.592,36,24c3,16.186-13.031,22.078-16,35c-4.012,16.654-9.582,31.75-14,48
			C323.77,378.189,334.993,378.868,333.043,388z M204.043,316c2.902,18.43,2.871,39.795,4,60c32.124-0.543,58.195-7.141,86-12
			c3.041-18.627,4.779-38.557,4-61C263.313,299.975,238.909,315.836,204.043,316z"/>
	</g>
</g>
</svg>
